inDegrees=no
num_controls=7
num_derivatives=13
num_iterations=137
num_multipliers=7
num_parameters=0
num_slacks=7
num_states=26
objective=0.529143
objective_accelerations=0.026297
objective_balance=0.001061
objective_effort=0.035407
objective_height=0.454525
objective_ligament=0.011853
solver_duration=1758.949975
status=Solve_Succeeded
success=true
DataType=double
version=3
OpenSimVersion=4.5
endheader
time	/jointset/ground_pelvis/pelvis_tilt/value	/jointset/ground_pelvis/pelvis_tx/value	/jointset/ground_pelvis/pelvis_ty/value	/jointset/hip_l/hip_flexion_l/value	/jointset/hip_l/hip_adduction_l/value	/jointset/hip_l/hip_rotation_l/value	/jointset/back/lumbar_extension/value	/jointset/patellofemoral_l/patellar_flexion_l/value	/jointset/knee_l/knee_flexion_l/value	/jointset/knee_l/knee_adduction_l/value	/jointset/knee_l/knee_rotation_l/value	/jointset/ankle_l/ankle_angle_l/value	/jointset/subtalar_l/subtalar_angle_l/value	/jointset/ground_pelvis/pelvis_tilt/speed	/jointset/ground_pelvis/pelvis_tx/speed	/jointset/ground_pelvis/pelvis_ty/speed	/jointset/hip_l/hip_flexion_l/speed	/jointset/hip_l/hip_adduction_l/speed	/jointset/hip_l/hip_rotation_l/speed	/jointset/back/lumbar_extension/speed	/jointset/patellofemoral_l/patellar_flexion_l/speed	/jointset/knee_l/knee_flexion_l/speed	/jointset/knee_l/knee_adduction_l/speed	/jointset/knee_l/knee_rotation_l/speed	/jointset/ankle_l/ankle_angle_l/speed	/jointset/subtalar_l/subtalar_angle_l/speed	/forceset/tau_hip_flexion_l	/forceset/tau_hip_adduction_l	/forceset/tau_hip_rotation_l	/forceset/tau_knee_flexion_l	/forceset/tau_ankle_angle_l	/forceset/tau_subtalar_angle_l	/forceset/tau_lumbar_extension	lambda_cid13_p0	lambda_cid13_p1	lambda_cid13_p2	lambda_cid13_p3	lambda_cid13_p4	lambda_cid13_p5	lambda_cid14_p0	/jointset/ground_pelvis/pelvis_tilt/accel	/jointset/ground_pelvis/pelvis_tx/accel	/jointset/ground_pelvis/pelvis_ty/accel	/jointset/hip_l/hip_flexion_l/accel	/jointset/hip_l/hip_adduction_l/accel	/jointset/hip_l/hip_rotation_l/accel	/jointset/back/lumbar_extension/accel	/jointset/patellofemoral_l/patellar_flexion_l/accel	/jointset/knee_l/knee_flexion_l/accel	/jointset/knee_l/knee_adduction_l/accel	/jointset/knee_l/knee_rotation_l/accel	/jointset/ankle_l/ankle_angle_l/accel	/jointset/subtalar_l/subtalar_angle_l/accel	gamma_cid13_p0	gamma_cid13_p1	gamma_cid13_p2	gamma_cid13_p3	gamma_cid13_p4	gamma_cid13_p5	gamma_cid14_p0
1.5	0.2311861035232099	0.07682088300766794	0.907806660288051	0.1902670186313392	-0.3182916648273582	-0.195337486541165	-0.7367651437771582	0.61263602122179	0.6126360212217887	-0.1172152110288654	-0.17433816643736	0.2419557210015612	0.06602190563984206	-0.2813687174879354	0.07184925628341896	0.1976420341245734	-0.6918205818371423	0.1233543148936871	-0.4918530177182872	0.8404401612752727	-1.556225779619598	-1.556225779619592	-0.1032459678602327	-0.0009351585791869768	-0.6757717209872502	-0.1270482275842528	-0.02313987808490591	0.02965488643706376	-0.008525034332799872	-0.2620270982925378	0.01098682908448706	0.01662499402793159	0.1691929590053579	-40.17034882275153	-2.60817897039485	2.727421527989373	3.252425922132821	-680.7350075080526	-70.98093091359874	-20.67763954653612	-0.4501106933267123	0.07615347896157217	-0.4097058503383776	0.192942445103907	0.2195028601627008	-0.2357657115692642	0.9291073617139612	-0.655340989838642	-0.6553409898386402	-0.3119848642989255	0.005710444655675128	-0.4035229873637362	0.1830605175882933	-3.597227104380354e-08	4.043150559814605e-07	9.27714045372651e-08	7.926881915069612e-08	-5.506672014456518e-08	1.128085552668253e-07	1.508307901003072e-08
1.51	0.2283501524284286	0.07754315638324033	0.9097621903746973	0.1833594623655271	-0.317047261407688	-0.2002679519934605	-0.7283149856978399	0.5970431728340229	0.5970431728340158	-0.1182629435298845	-0.1743478436211606	0.2351788541414824	0.06476079469943846	-0.2857758800194364	0.07260204544563996	0.1934293730957356	-0.6896258070112991	0.1255138274084611	-0.4941844388924326	0.8494957444626888	-1.562148005549334	-1.562148005549324	-0.1063087239497778	-0.0009966622402226327	-0.6795047854447627	-0.12515756144595	-0.0210946565640677	0.02825079640287128	-0.00857954580872366	-0.2578469474822473	0.01362624299699078	0.01620482560751264	0.1660234228916396	-39.24068437271968	-2.659094789119193	2.816200829098057	2.839653073900823	-678.8991335659737	-71.06141755982974	-21.0893871395272	-0.4291831047833505	0.07435164760618601	-0.4322522452373537	0.2424646498412917	0.2122236781197626	-0.2234846706545165	0.8794272784022525	-0.5312807172980964	-0.5312807172975857	-0.3045809442772174	-0.01150437281507221	-0.3436621818057496	0.1944525127518093	-4.579345396901053e-08	3.839912328880042e-07	1.375748028884258e-07	7.981927045668885e-08	-6.657181331574527e-08	6.654964627901499e-08	9.023667313350391e-09
1.52	0.2254714968939879	0.07827285965298569	0.9116745526478391	0.1764757977776766	-0.315781653216673	-0.2052200625275608	-0.7197771430904182	0.581396978722407	0.581396978722394	-0.1193415355843978	-0.174358020561838	0.2283675638354563	0.06351906699057801	-0.2899096054197997	0.07333523511801379	0.1890084714236632	-0.6870422462447859	0.1275952691626361	-0.4961820340792746	0.8579770668959764	-1.566894924389351	-1.566894924389339	-0.1094178785591196	-0.001035109954533729	-0.6826564101767036	-0.1231715812756256	-0.01904943504322957	0.02684670636867878	-0.008634057284646512	-0.253666796671957	0.01626565690949448	0.01578465718709362	0.1628538867779212	-38.31811512681696	-2.706126286836729	2.901343434694705	2.438081407466767	-677.1670287733843	-71.15164996183969	-21.47678370317793	-0.3954232670991724	0.07223358099213811	-0.4513539789852816	0.2706996332378696	0.2038887080429139	-0.1690005141086041	0.8142552108882043	-0.420279571895059	-0.4202795718950595	-0.3212645682582742	0.01032163400058672	-0.287235042249272	0.2021233239926267	-5.217162968323053e-08	3.592477113828178e-07	1.664454627881969e-07	7.848926675734692e-08	-7.363651858946637e-08	2.904477885183721e-08	4.532288201759424e-09
1.53	0.2225528677779441	0.07900978178980275	0.9135417058383104	0.1696200290842857	-0.3144954805737131	-0.2101905852916576	-0.7111574084902523	0.5657093162447764	0.5657093162447735	-0.1204510394470659	-0.1743684034891569	0.2215277567614398	0.0622978869767695	-0.2937686319501582	0.07404440080422132	0.1843919577956241	-0.6840385551380318	0.1296385283477664	-0.4978807313535374	0.8658665903529131	-1.570430072725296	-1.570430072725287	-0.1124514577121842	-0.001037858428130472	-0.6851995100944797	-0.1210302947873792	-0.01696031147799561	0.0254361921222673	-0.008716238721042234	-0.2495155315554037	0.01898729607465617	0.01536471679744438	0.1596676845500877	-37.37203078217152	-2.753969148669138	2.982725704463673	2.013751439835207	-675.4837073895014	-71.25903582292075	-21.83734909145919	-0.3740118475185485	0.06955402218362029	-0.4713468338915449	0.326134459465919	0.2043653657916759	-0.1640422062234856	0.760811495457214	-0.2890077416003017	-0.2890077416007268	-0.2896262407359682	-0.004994503490585837	-0.2220192367299923	0.2251798875144104	-5.489161023577688e-08	3.298082603151684e-07	1.783875880833667e-07	7.516127961483694e-08	-7.598331172213732e-08	8.410805828313469e-10	1.706943711825895e-09
1.54	0.2195970744962939	0.07975365477543163	0.9153617845366656	0.1627964834239767	-0.313188911170493	-0.2151768426029247	-0.702461876539045	0.5499925272283551	0.5499925272283621	-0.1215899234316459	-0.1743786981843022	0.214665684334208	0.06109912954309821	-0.2973424385410777	0.07472540488037577	0.1795935730004519	-0.6805976396284079	0.1316746212146403	-0.4993289435133353	0.8731365371042816	-1.572720232147488	-1.572720232147481	-0.1152939029414648	-0.001017463519758432	-0.6871094808197399	-0.1186870652481821	-0.01487118791276263	0.02402567787585509	-0.008798420157434702	-0.2453642664388145	0.02170893523981737	0.01494477640779365	0.1564814823222388	-36.43296904198636	-2.797420734795707	3.059796860174836	1.59992827399204	-673.9048112092889	-71.37444907703281	-22.16865388006907	-0.3383792792113831	0.06660125898151632	-0.487728212411907	0.3581445138118431	0.2024554443916282	-0.1189034912156504	0.690339869774517	-0.1712817891447672	-0.1712817891447672	-0.2830377835014043	0.0149503103943429	-0.1606092037416292	0.2425119341827727	-3.686443923338666e-08	3.332596684120081e-07	8.547875239370865e-08	6.919747482876536e-08	-5.675108626320279e-08	6.868495103839777e-08	1.271739450457047e-08
1.55	0.2166070089839767	0.08050418322153449	0.9171330099965951	0.1560094267674313	-0.3118622983262488	-0.2201756571775408	-0.6936968632048877	0.5342590149514893	0.5342590149514903	-0.1227571005655223	-0.1743883952332595	0.2077875910997781	0.05992440086974826	-0.3006235987202037	0.07537354137326492	0.1746244797996397	-0.6767313842361633	0.1336400100247584	-0.500373784974294	0.8797545543651096	-1.573761480095409	-1.573761480095402	-0.1181197477534781	-0.0009114051997546805	-0.6884000753847868	-0.1162330486710177	-0.01269469121958187	0.02256918573141012	-0.008894772713488061	-0.2412945633144975	0.02456957531954537	0.01447495453904376	0.153237595895992	-35.45364873498741	-2.819746146090138	3.126061513108003	1.172584512205048	-672.3465836869252	-71.47198979826935	-22.46834325699434	-0.3159228949160727	0.06291943867123462	-0.5055533835586549	0.4132127009969778	0.1923851582758839	-0.08819498383733845	0.6307963499255146	-0.0374457565315402	-0.03744575653154129	-0.2790476350550758	0.009975848787799533	-0.09691077017080882	0.2506562234986686	5.067058560559589e-09	3.74607066415757e-07	-1.28236625300201e-07	6.01967497142425e-08	-1.265607851394158e-08	2.47192324589661e-07	3.966908768822591e-08
1.56	0.2135855441683376	0.08126099295141201	0.9188537338225879	0.1492635019946217	-0.3105162706821132	-0.2251831042688266	-0.6848690169589844	0.5185217103033615	0.5185217103033559	-0.1239518741085193	-0.1743967232478194	0.2008998666822408	0.05877497430297304	-0.3036222992054444	0.07598166163529863	0.169493246213117	-0.6723712628812708	0.1355575811930356	-0.5010554468473239	0.8857031194534808	-1.573478706399965	-1.573478706399958	-0.1208131847656426	-0.0007436566403746338	-0.6890357174412171	-0.1136266439332376	-0.01051819452639972	0.02111269358696615	-0.008991125269546558	-0.2372248601901793	0.02743021539927409	0.01400513267029598	0.1499937094697457	-34.48058316175788	-2.839340237670522	3.190022590959962	0.7453080367214787	-670.8869319257774	-71.59326762642769	-22.73446695229319	-0.2818873404343287	0.05859801281042777	-0.5201562895539971	0.4569177063413954	0.1928919160234336	-0.0462675736299102	0.5564494352831698	0.09352253952796657	0.0935225395279678	-0.2565562235316248	0.02728835826960158	-0.0296187020183062	0.2729895663058963	3.407424880583504e-08	4.089357802626689e-07	-2.634823652696047e-07	5.172648031458668e-08	3.216289217682351e-08	3.655804296692995e-07	5.650784204655052e-08
1.57	0.210535756997653	0.08202366958394761	0.920522423628431	0.1425632001731486	-0.3091514354630712	-0.2301955319641804	-0.6759854025173481	0.5027936291167717	0.5027936291167697	-0.1251732052390467	-0.174403128077158	0.1940089506061956	0.05765216340721206	-0.306282133475474	0.07654519624074989	0.1642220647131058	-0.6676100986528963	0.1373896206503992	-0.501369684182205	0.8908928860310831	-1.571908324556252	-1.571908324556238	-0.1234448420668349	-0.0005397880639234757	-0.6890376738780274	-0.1109245790884831	-0.008253221955145733	0.01944743471883941	-0.009099605781474595	-0.233289535961532	0.0303898947296137	0.01359426783998178	0.146695865483846	-33.47829248631783	-2.889876784109303	3.259167655682006	0.3135882140144355	-669.4984420072471	-71.81581497574057	-22.9694816441834	-0.2500806039724622	0.05396877459659406	-0.5339757740389027	0.4975670926384558	0.1753839313352886	-0.01487697901643564	0.4812078425971331	0.2231643366073834	0.2231643366081223	-0.2651952409209548	0.01651182573264655	0.03100275237362017	0.2704252780118638	4.69260546152721e-08	4.344911389135346e-07	-3.006410580833769e-07	4.391928055851462e-08	7.788681654446842e-08	4.088194491594079e-07	6.070542287321171e-08
1.58	0.207460961657531	0.08279172908057453	0.922137726280511	0.1359128802562698	-0.3077688750553071	-0.2352092770660029	-0.6670536968952162	0.4870881254145821	0.4870881254145836	-0.1264205978940876	-0.1744075790770523	0.1871213123391599	0.05655669522678895	-0.3086239330929131	0.0770582344535656	0.1588158154605258	-0.6623748819624025	0.1391026189374613	-0.5013189281410558	0.8953213555526207	-1.568963209519959	-1.568963209519943	-0.1260254896683385	-0.0003528907514813559	-0.6883801556393343	-0.1081581008656631	-0.005988249383892079	0.01778217585071243	-0.00920808629340154	-0.2293542117328869	0.03334957405995314	0.01318340300966711	0.1433980214979529	-32.47815444397678	-2.937656111122577	3.325154969793418	-0.1281221337059833	-668.1508655196186	-72.05524112828587	-23.17448214057422	-0.2182804099162595	0.04849873428332119	-0.5471698400677689	0.5517281987652483	0.1690836819631126	0.02673110157608666	0.4041900240702526	0.3684691780440847	0.3684691780440851	-0.2463542835933528	0.02389410546779371	0.1022762330886961	0.2858722419190022	5.76121480974579e-08	4.608767571422352e-07	-3.329430253223857e-07	3.825159795383667e-08	1.172909180698095e-07	4.4714809586046e-07	6.485522042357727e-08
